# xmcd
#
# Track frame offsets: 
#        150
#        13480
#        27080
#        48631
#        66819
#        86036
#        103758
#        121155
#        140991
#
# Disc length: 2121 seconds
#
# Revision: 0
# Processed by: cddbd v1.5.2PL0 Copyright (c) Steve Scherf et al.
# Submitted via: ExactAudioCopy v0.95a5
#
DISCID=82084709
DTITLE=Petrelli, Jon - Highlandtown
DYEAR=2010
DGENRE=Progressive Rock
TTITLE0=Movers and Shakers
TTITLE1=Crazy Daisy
TTITLE2=Forget About Him
TTITLE3=Highlandtown
TTITLE4=Suffer For Love
TTITLE5=Kiss Me Goodnight
TTITLE6=We Belong
TTITLE7=A Little Bit Of Heaven
TTITLE8=Today Is My Destiny
EXTD=
EXTT0=
EXTT1=
EXTT2=
EXTT3=
EXTT4=
EXTT5=
EXTT6=
EXTT7=
EXTT8=
PLAYORDER=
